<svg xmlns="http://www.w3.org/2000/svg" width="127.002" height="29.35" viewBox="0 0 127.002 29.35">
  <g id="header_logo" data-name="header logo" transform="translate(-56.395 -60.071)">
    <g id="Group_3" data-name="Group 3" transform="translate(111.236 60.819)">
      <path id="Path_1" data-name="Path 1" d="M278,63.094h5.95V77.512h13.386V82.5H278Z" transform="translate(-278 -63.094)" fill="#fff" fill-rule="evenodd"/>
    </g>
    <g id="Group_4" data-name="Group 4" transform="translate(133.064 60.819)">
      <path id="Path_2" data-name="Path 2" d="M366.2,63.094h21.28v4.5H372.166v3.109h14.5v4.019h-14.5v3.1h15.662V82.5H366.2Z" transform="translate(-366.202 -63.094)" fill="#fff" fill-rule="evenodd"/>
    </g>
    <g id="Group_5" data-name="Group 5" transform="translate(157.392 60.82)">
      <path id="Path_3" data-name="Path 3" d="M482.471,63.1H464.512V82.5h17.959c5.957,0,8.045-1.954,8.045-6.754V69.853c0-4.8-2.088-6.755-8.045-6.755m2.095,10.935c0,2.756-.995,3.482-3.538,3.482H470.464V67.922h10.565c2.543,0,3.538.723,3.538,3.484Z" transform="translate(-464.512 -63.098)" fill="#fff" fill-rule="evenodd"/>
    </g>
    <g id="Group_6" data-name="Group 6" transform="translate(56.395 60.829)">
      <path id="Path_4" data-name="Path 4" d="M64.956,63.132h8.964c6.765,0,7.7,2.44,7.7,6.231v.615h-5.85c0-1.932-1.1-2.176-3.008-2.176H66.295c-3,0-3.781.728-3.781,4.057v2.417c0,3.329.778,4.054,3.781,4.054h6.363c1.559,0,3.115-.241,3.115-2.122v-.563H68.365V71.617H81.73V77.15c0,5.585-2.9,5.854-9.61,5.854H64.956c-5.367,0-8.561-1.343-8.561-7.037v-5.8c0-5.7,3.193-7.036,8.561-7.036" transform="translate(-56.395 -63.132)" fill="#fff" fill-rule="evenodd"/>
    </g>
    <g id="Group_7" data-name="Group 7" transform="translate(171.195 81.264)">
      <path id="Path_5" data-name="Path 5" d="M523.64,145.71h3.5c2.648,0,3.013,1,3.013,2.556v.254h-2.289c0-.793-.43-.889-1.174-.889h-2.526c-1.179,0-1.481.3-1.481,1.661v1c0,1.365.3,1.66,1.481,1.66h2.482c.611,0,1.218-.1,1.218-.868v-.231h-2.9v-1.654H530.2v2.273c0,2.287-1.137,2.4-3.758,2.4h-2.8c-2.1,0-3.352-.555-3.352-2.887V148.6c0-2.339,1.249-2.889,3.352-2.889" transform="translate(-520.288 -145.71)" fill="#56b147" fill-rule="evenodd"/>
    </g>
    <g id="Group_8" data-name="Group 8" transform="translate(90.975 81.824)">
      <path id="Path_6" data-name="Path 6" d="M197.706,147.972a1.5,1.5,0,0,0-.755,1.169c0,1.155,1.956,2.087,4.368,2.087s4.367-.932,4.367-2.087a1.511,1.511,0,0,0-.75-1.169c.97.453,1.575,1.083,1.575,1.783,0,1.37-2.327,2.48-5.193,2.48s-5.191-1.109-5.191-2.48c0-.7.6-1.33,1.578-1.783" transform="translate(-196.128 -147.972)" fill="#56b147" fill-rule="evenodd"/>
    </g>
    <g id="Group_9" data-name="Group 9" transform="translate(91.815 85.488)">
      <path id="Path_7" data-name="Path 7" d="M200.858,162.779a1.226,1.226,0,0,0-.636.962c0,.947,1.649,1.713,3.683,1.713s3.683-.766,3.683-1.713a1.233,1.233,0,0,0-.633-.962c.82.367,1.33.885,1.33,1.463,0,1.124-1.961,2.036-4.38,2.036s-4.38-.911-4.38-2.036c0-.577.511-1.1,1.334-1.463" transform="translate(-199.524 -162.779)" fill="#56b147" fill-rule="evenodd"/>
    </g>
    <g id="Group_10" data-name="Group 10" transform="translate(111.236 81.333)">
      <path id="Path_8" data-name="Path 8" d="M278,145.989h2.317v5.957h5.211v2.062H278Z" transform="translate(-278 -145.989)" fill="#56b147" fill-rule="evenodd"/>
    </g>
    <g id="Group_11" data-name="Group 11" transform="translate(119.857 81.334)">
      <rect id="Rectangle_43" data-name="Rectangle 43" width="2.317" height="8.02" transform="translate(0 0)" fill="#56b147"/>
    </g>
    <g id="Group_12" data-name="Group 12" transform="translate(123.718 81.264)">
      <path id="Path_9" data-name="Path 9" d="M331.766,145.71h3.477c2.628,0,2.993,1,2.993,2.556v.254h-2.274c0-.793-.422-.889-1.17-.889h-2.508c-1.167,0-1.469.3-1.469,1.661v1c0,1.365.3,1.66,1.469,1.66h2.471c.607,0,1.207-.1,1.207-.868v-.231h-2.874v-1.654h5.191v2.273c0,2.287-1.128,2.4-3.732,2.4h-2.782c-2.086,0-3.329-.555-3.329-2.887V148.6c0-2.339,1.242-2.889,3.329-2.889" transform="translate(-328.437 -145.71)" fill="#56b147" fill-rule="evenodd"/>
    </g>
    <g id="Group_13" data-name="Group 13" transform="translate(134.974 81.333)">
      <path id="Path_10" data-name="Path 10" d="M373.924,145.989h2.317v2.859h4.888v-2.859h2.318v8.02h-2.318v-3.035h-4.888v3.035h-2.317Z" transform="translate(-373.924 -145.989)" fill="#56b147" fill-rule="evenodd"/>
    </g>
    <g id="Group_14" data-name="Group 14" transform="translate(145.525 81.333)">
      <path id="Path_11" data-name="Path 11" d="M416.558,145.989h8.815v1.994h-3.25v6.025h-2.315v-6.025h-3.25Z" transform="translate(-416.558 -145.989)" fill="#56b147" fill-rule="evenodd"/>
    </g>
    <g id="Group_15" data-name="Group 15" transform="translate(155.498 81.334)">
      <rect id="Rectangle_44" data-name="Rectangle 44" width="2.317" height="8.02" transform="translate(0 0)" fill="#56b147"/>
    </g>
    <g id="Group_16" data-name="Group 16" transform="translate(159.488 81.333)">
      <path id="Path_12" data-name="Path 12" d="M472.979,145.989h3.6l4.361,5.828h.015v-5.828h2.323v8.02h-3.592l-4.361-5.828H475.3v5.828h-2.32Z" transform="translate(-472.979 -145.989)" fill="#56b147" fill-rule="evenodd"/>
    </g>
    <g id="Group_17" data-name="Group 17" transform="translate(89.533 69.545)">
      <path id="Path_13" data-name="Path 13" d="M191.278,98.356c1.25,1.945,3.315,3.065,5.179,4.357,1.6,1.107,2.369,2.478,2.044,4.182-.174,1.241-2.049,3.391-1.368,4.782-1.369-1.076.963-4.32-2.14-8.053a21.69,21.69,0,0,0-1.7-1.486c1.241,1.858,2.215,3,2.071,5.495-.615-.226-.427-.136-.944-.359a8.6,8.6,0,0,1-2.6-1.682,4.561,4.561,0,0,1-1.451-4.4,9.243,9.243,0,0,1,.779-2.634A1.826,1.826,0,0,1,191.278,98.356Z" transform="translate(-190.302 -98.356)" fill="#56b147"/>
      <path id="Path_14" data-name="Path 14" d="M224.6,100.948a.882.882,0,0,0-.155.066,9.293,9.293,0,0,1-2.477,1.232c-.683.241-1.377.424-2.058.68-1.231.463-2.061,1.27-2.061,1.8a5.9,5.9,0,0,1,1.2,1.117,5.553,5.553,0,0,1,3.6-2.247c-.923.64-2.724,2.136-3.063,3.14a3.432,3.432,0,0,1,.273,1.595,5.784,5.784,0,0,0,3.418-2C224.564,104.918,224.692,102.96,224.6,100.948Z" transform="translate(-211.03 -100.307)" fill="#56b147"/>
    </g>
    <path id="Path_15" data-name="Path 15" d="M175.823,81.381a9.648,9.648,0,0,1-5.245-4.61,10.962,10.962,0,0,1-1.008-7.418,7.52,7.52,0,0,1,.246-.949l.143-.472c.05-.157.119-.306.179-.459s.125-.3.191-.456l.1-.227c.036-.074.077-.146.116-.218.158-.29.313-.583.48-.869a11.911,11.911,0,0,1,2.637-2.98,11.4,11.4,0,0,1,3.507-1.964,11.891,11.891,0,0,1,7.959-.006,11.456,11.456,0,0,1,3.511,1.961,11.921,11.921,0,0,1,2.64,2.979c.168.286.322.58.481.869l.116.218.1.228.192.456c.06.153.129.3.18.459l.143.472a7.535,7.535,0,0,1,.247.949,10.959,10.959,0,0,1-1,7.422,9.641,9.641,0,0,1-5.247,4.611,12.518,12.518,0,0,0,2.05-2.563c.128-.233.263-.458.374-.7.057-.118.119-.232.171-.35l.149-.359c.1-.235.178-.483.268-.718.066-.247.151-.483.2-.731a9.561,9.561,0,0,0-.334-5.675,4.644,4.644,0,0,0-.27-.636l-.144-.312c-.05-.1-.116-.2-.173-.3s-.114-.2-.17-.3l-.083-.148-.1-.139-.392-.553a9.178,9.178,0,0,0-1.95-1.826,8.3,8.3,0,0,0-2.356-1.154,9.323,9.323,0,0,0-2.577-.4,8.724,8.724,0,0,0-4.936,1.554,9.25,9.25,0,0,0-1.951,1.828,9.455,9.455,0,0,0-1.659,8.063c.05.247.135.484.2.731.091.235.165.483.269.718l.15.358c.053.119.114.233.171.35.112.238.246.462.375.7A12.488,12.488,0,0,0,175.823,81.381Z" transform="translate(-84.981)" fill="#fff"/>
  </g>
</svg>
